<mxfile host="app.diagrams.net" modified="2023-03-22T09:44:40.170Z" agent="5.0 (Macintosh; Intel Mac OS X 10_15_7) AppleWebKit/537.36 (KHTML, like Gecko) Chrome/111.0.0.0 Safari/537.36" etag="aPMXM2tafer_BaDx71yl" version="21.0.8" type="github">
  <diagram name="第 1 页" id="XWJu_p0xJvDjMxcpTIB_">
    <mxGraphModel dx="954" dy="492" grid="1" gridSize="10" guides="1" tooltips="1" connect="1" arrows="1" fold="1" page="1" pageScale="1" pageWidth="827" pageHeight="1169" math="0" shadow="0">
      <root>
        <mxCell id="0" />
        <mxCell id="1" parent="0" />
        <mxCell id="IRXtdyIjFYSdmaM1l_-0-4" value="" style="edgeStyle=orthogonalEdgeStyle;rounded=0;orthogonalLoop=1;jettySize=auto;html=1;" edge="1" parent="1" source="IRXtdyIjFYSdmaM1l_-0-1" target="IRXtdyIjFYSdmaM1l_-0-3">
          <mxGeometry relative="1" as="geometry" />
        </mxCell>
        <mxCell id="IRXtdyIjFYSdmaM1l_-0-1" value="用户百度搜索" style="rounded=1;whiteSpace=wrap;html=1;" vertex="1" parent="1">
          <mxGeometry x="320" y="90" width="120" height="40" as="geometry" />
        </mxCell>
        <mxCell id="IRXtdyIjFYSdmaM1l_-0-6" value="" style="edgeStyle=orthogonalEdgeStyle;rounded=0;orthogonalLoop=1;jettySize=auto;html=1;" edge="1" parent="1" source="IRXtdyIjFYSdmaM1l_-0-3" target="IRXtdyIjFYSdmaM1l_-0-5">
          <mxGeometry relative="1" as="geometry" />
        </mxCell>
        <mxCell id="IRXtdyIjFYSdmaM1l_-0-3" value="下载/打开app" style="rounded=1;whiteSpace=wrap;html=1;" vertex="1" parent="1">
          <mxGeometry x="320" y="210" width="120" height="40" as="geometry" />
        </mxCell>
        <mxCell id="IRXtdyIjFYSdmaM1l_-0-8" value="" style="edgeStyle=orthogonalEdgeStyle;rounded=0;orthogonalLoop=1;jettySize=auto;html=1;" edge="1" parent="1" source="IRXtdyIjFYSdmaM1l_-0-5" target="IRXtdyIjFYSdmaM1l_-0-7">
          <mxGeometry relative="1" as="geometry" />
        </mxCell>
        <mxCell id="IRXtdyIjFYSdmaM1l_-0-10" value="" style="edgeStyle=orthogonalEdgeStyle;rounded=0;orthogonalLoop=1;jettySize=auto;html=1;" edge="1" parent="1" source="IRXtdyIjFYSdmaM1l_-0-5" target="IRXtdyIjFYSdmaM1l_-0-9">
          <mxGeometry relative="1" as="geometry" />
        </mxCell>
        <mxCell id="IRXtdyIjFYSdmaM1l_-0-5" value="所见所得识别用户keyword&lt;br&gt;是否有单独配置" style="rhombus;whiteSpace=wrap;html=1;rounded=1;" vertex="1" parent="1">
          <mxGeometry x="260" y="310" width="240" height="70" as="geometry" />
        </mxCell>
        <mxCell id="IRXtdyIjFYSdmaM1l_-0-7" value="keyword-----对应单独配置" style="whiteSpace=wrap;html=1;rounded=1;" vertex="1" parent="1">
          <mxGeometry x="280" y="450" width="200" height="60" as="geometry" />
        </mxCell>
        <mxCell id="IRXtdyIjFYSdmaM1l_-0-9" value="return &lt;br&gt;/search？keyword = {keyword}" style="whiteSpace=wrap;html=1;rounded=1;" vertex="1" parent="1">
          <mxGeometry x="560" y="315" width="200" height="60" as="geometry" />
        </mxCell>
      </root>
    </mxGraphModel>
  </diagram>
</mxfile>
